<svg xmlns="http://www.w3.org/2000/svg" viewBox="0 0 147.07 219.53"><defs><style>.cls-1,.cls-4{fill:none;}.cls-2{clip-path:url(#clip-path);}.cls-3{fill:#364a59;}.cls-3,.cls-5,.cls-6,.cls-7,.cls-8{fill-rule:evenodd;}.cls-4{stroke:#364a59;stroke-miterlimit:22.93;stroke-width:4px;}.cls-5{fill:#d2d3d4;}.cls-6{fill:#41444c;}.cls-7{fill:#e9e3d7;}.cls-8{fill:#653614;}</style><clipPath id="clip-path" transform="translate(-1.43 -2.07)"><path d="M-223.5-309.1h595.28v841.88H-223.5z" class="cls-1"/></clipPath></defs><title>Kurt Avatar</title><g class="cls-2"><path d="M108.73 173.27c-12-1.25-23.92.17-36 .25-10-.08-20-.42-30-.5-20.9.9-30.4 10.66-33.75 27-1 4.74-.25 12.42-.25 17.25 42.58-.08 85.92.33 128.5.25 0-4.58-.12-9.67-.25-14.25-.47-15.95-9.4-28.04-28.25-30z" class="cls-3"/><path d="M108.73 173.27c-12-1.25-23.92.17-36 .25-10-.08-20-.42-30-.5-20.9.9-30.4 10.66-33.75 27-1 4.74-.25 12.42-.25 17.25 42.58-.08 85.92.33 128.5.25 0-4.58-.12-9.67-.25-14.25-.47-15.95-9.4-28.04-28.25-30z" class="cls-4"/><path d="M105.48 173.27l-64.37-.12v44.12l64.5.13-.12-44.13z" class="cls-5"/><path d="M105.48 173.27l-64.37-.12v44.12l64.5.13-.12-44.13z" class="cls-4"/><path d="M80.48 187.77l-13.25-1.25-5 9.25 7.25 8.25-5.75 13 20.5.13-5.25-12.63 5.5-8.5-4-8.25z" class="cls-6"/><path d="M80.48 187.77l-13.25-1.25-5 9.25 7.25 8.25-5.75 13 20.5.13-5.25-12.63 5.5-8.5-4-8.25z" class="cls-4"/><path d="M123.42 79.93l-.25 31.5c17.55-5.5 18.95-23.26.25-31.5z" class="cls-7"/><path d="M123.42 79.93l-.25 31.5c17.55-5.5 18.95-23.26.25-31.5z" class="cls-4"/><path d="M23.57 79.93l.25 31.5c-17.55-5.5-18.95-23.26-.25-31.5z" class="cls-7"/><path d="M23.57 79.93l.25 31.5c-17.55-5.5-18.95-23.26-.25-31.5z" class="cls-4"/><path d="M21.42 83.4l-7.5 3c-10.3-16.47-15.8-34.24-8.75-52 3.33 2.5 6.4 6 9.75 8.5-2.46-18-1.27-33.7 19-37q.24 6 .5 12C50.02 3.27 71.97.15 92.92 2.92c-1.5 4-5.5 9-7 13 14.6-8.88 33.55-7.28 57.5 6.5l-11.5 8.5c7.67 17.17 4.7 34.34-1 51.5-2.17.34-4.84.67-7 1z" class="cls-8"/><path d="M21.42 83.4l-7.5 3c-10.3-16.47-15.8-34.24-8.75-52 3.33 2.5 6.4 6 9.75 8.5-2.46-18-1.27-33.7 19-37q.24 6 .5 12C50.02 3.27 71.97.15 92.92 2.92c-1.5 4-5.5 9-7 13 14.6-8.88 33.55-7.28 57.5 6.5l-11.5 8.5c7.67 17.17 4.7 34.34-1 51.5-2.17.34-4.84.67-7 1z" class="cls-4"/><path d="M99.48 173.02l-52.9.63 5.37 21.12c5.17-2.75 9.83-5.5 15-8.25 4.42 3.88 10.58 2.64 15 .5l11.75 7.5z" class="cls-5"/><path d="M99.48 173.02l-52.9.63 5.37 21.12c5.17-2.75 9.83-5.5 15-8.25 4.42 3.88 10.58 2.64 15 .5l11.75 7.5z" class="cls-4"/><path d="M86.48 165.77l-25.5 1.25c-1.3 14.28 3 21.06 11.75 22 12.55-.65 16.04-10.1 13.75-23.25z" class="cls-7"/><path d="M86.48 165.77l-25.5 1.25c-1.3 14.28 3 21.06 11.75 22 12.55-.65 16.04-10.1 13.75-23.25z" class="cls-4"/><path d="M123.46 130.14c-23.3 48.32-69.88 58-101.5 1.5v-76.5c2.58-12.32 10.06-18.4 20-20 8.93-1.4 18.93 5.8 31 5.46s20.8-7.7 29.14-6.4c9 1.4 16.2 7.14 20.86 18.4q.24 38.8.5 77.54z" class="cls-7"/><path d="M123.46 130.14c-23.3 48.32-69.88 58-101.5 1.5v-76.5c2.58-12.32 10.06-18.4 20-20 8.93-1.4 18.93 5.8 31 5.46s20.8-7.7 29.14-6.4c9 1.4 16.2 7.14 20.86 18.4q.24 38.8.5 77.54zM33.92 71.64a31.3 31.3 0 0 1 20.25-3.25M111.84 71.72a31.25 31.25 0 0 0-20.27-3.25M63.67 112.14c6.16 3.25 12.33 2.76 18.5 0" class="cls-4"/><path d="M74.17 143.93c-12.85.48-19.62-5.28-19-15h35.75c-.08 7-3.14 14.46-16.75 15z" class="cls-7"/><path d="M74.17 143.93c-12.85.48-19.62-5.28-19-15h35.75c-.08 7-3.14 14.46-16.75 15zM46.67 76.47a3 3 0 1 1-3 3 3 3 0 0 1 3-3zM98.57 76.47a3 3 0 1 1-3 3 3 3 0 0 1 3-3z" class="cls-4"/></g></svg>